<?xml version="1.0" encoding="UTF-8"?>
<svg id="Layer_2" data-name="Layer 2" xmlns="http://www.w3.org/2000/svg" viewBox="0 0 222.91 89.43">
  <defs>
    <style>
      .cls-1 {
        letter-spacing: 0em;
      }

      .cls-2 {
        fill: #d49a2a;
      }

      .cls-3 {
        letter-spacing: 0em;
      }

      .cls-4 {
        fill: #0a4b2d;
        font-family: Bahnschrift-Bold, Bahnschrift;
        font-size: 33.29px;
        font-variation-settings: 'wght' 700, 'wdth' 100;
        font-weight: 700;
      }
    </style>
  </defs>
  <g id="Layer_1-2" data-name="Layer 1">
    <g>
      <path class="cls-2" d="m49.1,0c-.55,0-1.07.22-1.46.61L10.31,38.36c-5.48,5.54-6.46,13.93-2.91,20.48l-2.9-2.9c-6-6-6-15.74,0-21.74L35.27,3.41c2.18-2.18,5.15-3.41,8.24-3.41h5.59Z"/>
      <path class="cls-2" d="m67.09,0L17.91,49.01c-3.02,3.01-4.58,7.18-4.28,11.43l.15,2.12c.03.45.19.88.46,1.23l4.58,6.1-.86-5.72c-.51-3.36.61-6.77,3.01-9.18L75.75,0h-8.66Z"/>
      <path class="cls-2" d="m53.55,0L11.9,42.54c-2.73,2.79-4.15,6.62-3.9,10.52h0c.24,3.74,1.75,7.29,4.26,10.07h0s-.45-5.96-.45-5.96c-.28-3.62,1.03-7.18,3.57-9.76L62.09,0h-8.55Z"/>
      <path class="cls-2" d="m32.02,49.03l-7.35,7.47c-3.55,3.61-4.86,8.85-3.42,13.7l.89,3.02,4.55,4.77-1.25-3.64c-.59-1.7-.89-3.5-.89-5.3h0c0-1.85.51-3.66,1.47-5.23l.39-.64c.7-1.14,1.53-2.2,2.48-3.14l7.12-7.12-4-3.88Z"/>
      <path class="cls-2" d="m38.57,55.47l-7.57,8.4c-4.37,4.85-4.48,12.19-.25,17.16l5.42,6.38c1.09,1.29,2.7,2.03,4.38,2.03h2.11l-5.85-5.85c-5.08-5.08-5-13.34.17-18.32l5.68-5.46-4.11-4.33Z"/>
      <path class="cls-2" d="m45.61,62.24l-7.1,7.28c-3.53,3.62-3.49,9.41.11,12.98l6.99,6.94h5.66l-6.73-6.25c-3.06-2.84-3.18-7.64-.27-10.63l5.67-5.81-4.33-4.49Z"/>
      <path class="cls-2" d="m52.77,69.07l-6.05,6.36c-1.75,1.84-1.71,4.73.08,6.52l7.47,7.49h7.16l-7.49-6.95c-1.88-1.75-1.88-4.73,0-6.47l3-2.78-4.16-4.16Z"/>
      <path class="cls-2" d="m59.6,75.84l-3.38,3.03c-.75.67-.78,1.84-.06,2.55l8.16,8.02h9.1l-13.82-13.59Z"/>
    </g>
    <text class="cls-4" transform="translate(45.44 58.83)"><tspan class="cls-3" x="0" y="0">G</tspan><tspan class="cls-1" x="21.2" y="0">REENLINE</tspan></text>
  </g>
</svg>